<svg width="32" height="33" viewBox="0 0 32 33" fill="none" xmlns="http://www.w3.org/2000/svg">
<path d="M17.333 7.43685C17.333 6.70047 16.7361 6.10352 15.9997 6.10352C15.2633 6.10352 14.6663 6.70047 14.6663 7.43685V15.4368H6.66634C5.92996 15.4368 5.33301 16.0338 5.33301 16.7702C5.33301 17.5066 5.92996 18.1035 6.66634 18.1035H14.6663V26.1035C14.6663 26.8399 15.2633 27.4368 15.9997 27.4368C16.7361 27.4368 17.333 26.8399 17.333 26.1035V18.1035H25.333C26.0694 18.1035 26.6663 17.5066 26.6663 16.7702C26.6663 16.0338 26.0694 15.4368 25.333 15.4368H17.333V7.43685Z" fill="#396AFF"/>
</svg>
