<svg width="688" height="520" viewBox="0 0 688 520" fill="none" xmlns="http://www.w3.org/2000/svg">
<g clip-path="url(#clip0_107_57884)">
<path d="M396.475 25.3085C402.376 37.8827 389.871 41.4444 375.547 48.184C361.222 54.9236 350.502 62.289 344.601 49.7148C338.7 37.1406 333.911 12.1831 354.176 2.6488C375.139 -7.214 390.573 12.7343 396.475 25.3085Z" fill="#2F2E41"/>
<path d="M367.248 50.037C377.899 50.037 386.532 41.3925 386.532 30.7289C386.532 20.0654 377.899 11.4209 367.248 11.4209C356.598 11.4209 347.964 20.0654 347.964 30.7289C347.964 41.3925 356.598 50.037 367.248 50.037Z" fill="#FFB8B8"/>
<path d="M462.785 116.356C462.117 115.484 461.45 114.627 460.775 113.794C459.903 112.709 459.027 111.658 458.145 110.641C448.15 99.093 437.519 91.8213 425.812 91.0431H425.797L425.624 91.0273L402.297 113.794L394.367 121.529L394.54 121.953L398.819 132.621H473.793C470.414 127.008 466.74 121.578 462.785 116.356Z" fill="#2F2E41"/>
<path d="M346.279 38.5028L353.182 35.2549L352.22 25.2843L356.836 33.5356L360.135 31.9833L359.574 26.167L362.267 30.9803L386.783 19.4458C384.48 14.5397 380.325 10.7503 375.232 8.91131C370.139 7.07233 364.525 7.33437 359.625 9.6398L356.072 11.3115C351.172 13.6169 347.388 17.7769 345.551 22.8762C343.714 27.9756 343.976 33.5966 346.279 38.5028Z" fill="#2F2E41"/>
<path d="M506.046 388.974H103.394C99.9592 388.97 96.6663 387.603 94.2376 385.171C91.809 382.739 90.4428 379.442 90.439 376.003V133.756C90.4418 131.236 91.4426 128.821 93.2218 127.04C95.0011 125.258 97.4134 124.256 99.9297 124.253H509.346C511.906 124.256 514.36 125.275 516.17 127.088C517.98 128.9 518.998 131.357 519.001 133.92V376.003C518.997 379.442 517.631 382.739 515.202 385.171C512.774 387.603 509.481 388.97 506.046 388.974Z" fill="#F2F2F2"/>
<path d="M115.956 376.003H493.484C496.815 376.003 500.011 374.678 502.367 372.319C504.722 369.961 506.046 366.761 506.046 363.425V157.816C506.046 154.48 504.722 151.281 502.367 148.922C500.011 146.563 496.815 145.238 493.484 145.238H115.956C112.624 145.238 109.429 146.563 107.073 148.922C104.717 151.281 103.394 154.48 103.394 157.816V363.425C103.394 366.761 104.717 369.961 107.073 372.319C109.429 374.678 112.624 376.003 115.956 376.003Z" fill="white"/>
<path d="M518.82 133.014H90.2568V126.411C90.2618 122.96 91.6335 119.653 94.071 117.214C96.5086 114.775 99.8128 113.403 103.259 113.4H505.818C509.264 113.403 512.569 114.775 515.006 117.214C517.444 119.653 518.815 122.96 518.82 126.411V133.014Z" fill="#396AFF"/>
<path d="M113.886 126.594C115.743 126.594 117.249 125.086 117.249 123.227C117.249 121.367 115.743 119.859 113.886 119.859C112.029 119.859 110.523 121.367 110.523 123.227C110.523 125.086 112.029 126.594 113.886 126.594Z" fill="white"/>
<path d="M126.652 126.594C128.509 126.594 130.015 125.086 130.015 123.227C130.015 121.367 128.509 119.859 126.652 119.859C124.794 119.859 123.289 121.367 123.289 123.227C123.289 125.086 124.794 126.594 126.652 126.594Z" fill="white"/>
<path d="M139.417 126.594C141.275 126.594 142.78 125.086 142.78 123.227C142.78 121.367 141.275 119.859 139.417 119.859C137.56 119.859 136.054 121.367 136.054 123.227C136.054 125.086 137.56 126.594 139.417 126.594Z" fill="white"/>
<path d="M316.5 331.414H282.739C280.761 331.411 278.865 330.624 277.467 329.224C276.069 327.824 275.282 325.925 275.28 323.945V290.142C275.282 288.162 276.069 286.264 277.467 284.864C278.865 283.464 280.761 282.676 282.739 282.674H316.5C318.477 282.676 320.373 283.464 321.772 284.864C323.17 286.264 323.957 288.162 323.959 290.142V323.945C323.957 325.925 323.17 327.824 321.772 329.224C320.373 330.624 318.477 331.411 316.5 331.414ZM282.739 284.246C281.177 284.248 279.681 284.87 278.577 285.975C277.473 287.08 276.852 288.579 276.85 290.142V323.945C276.852 325.509 277.473 327.007 278.577 328.112C279.681 329.218 281.177 329.84 282.739 329.841H316.5C318.061 329.84 319.558 329.218 320.662 328.112C321.766 327.007 322.387 325.509 322.388 323.945V290.142C322.387 288.579 321.766 287.08 320.662 285.975C319.558 284.87 318.061 284.248 316.5 284.246H282.739Z" fill="#CCCCCC"/>
<path d="M309.826 321.98H289.413C288.788 321.979 288.189 321.731 287.748 321.289C287.306 320.847 287.058 320.247 287.057 319.622V294.466C287.058 293.841 287.306 293.241 287.748 292.799C288.189 292.357 288.788 292.108 289.413 292.107H304.204C304.741 292.108 305.261 292.291 305.68 292.628L311.302 297.151C311.577 297.371 311.799 297.651 311.951 297.969C312.104 298.287 312.183 298.636 312.182 298.989V319.622C312.181 320.247 311.933 320.847 311.491 321.289C311.05 321.731 310.451 321.979 309.826 321.98ZM289.413 293.68C289.204 293.68 289.005 293.763 288.858 293.91C288.71 294.058 288.628 294.257 288.627 294.466V319.622C288.628 319.83 288.71 320.03 288.858 320.177C289.005 320.325 289.204 320.408 289.413 320.408H309.826C310.034 320.408 310.234 320.325 310.381 320.177C310.528 320.03 310.611 319.83 310.611 319.622V298.989C310.612 298.871 310.586 298.755 310.535 298.649C310.484 298.543 310.41 298.45 310.318 298.376L304.696 293.853C304.556 293.741 304.383 293.68 304.204 293.68H289.413Z" fill="#CCCCCC"/>
<path d="M305.9 303.113H293.338C293.13 303.113 292.93 303.03 292.783 302.883C292.635 302.736 292.553 302.536 292.553 302.327C292.553 302.119 292.635 301.919 292.783 301.771C292.93 301.624 293.13 301.541 293.338 301.541H305.9C306.108 301.541 306.308 301.624 306.455 301.771C306.603 301.919 306.685 302.119 306.685 302.327C306.685 302.536 306.603 302.736 306.455 302.883C306.308 303.03 306.108 303.113 305.9 303.113Z" fill="#CCCCCC"/>
<path d="M305.9 307.83H293.338C293.13 307.83 292.93 307.747 292.783 307.6C292.635 307.452 292.553 307.252 292.553 307.044C292.553 306.835 292.635 306.635 292.783 306.488C292.93 306.341 293.13 306.258 293.338 306.258H305.9C306.108 306.258 306.308 306.341 306.455 306.488C306.603 306.635 306.685 306.835 306.685 307.044C306.685 307.252 306.603 307.452 306.455 307.6C306.308 307.747 306.108 307.83 305.9 307.83Z" fill="#CCCCCC"/>
<path d="M305.9 312.547H293.338C293.13 312.547 292.93 312.464 292.783 312.317C292.635 312.169 292.553 311.969 292.553 311.761C292.553 311.552 292.635 311.352 292.783 311.205C292.93 311.057 293.13 310.975 293.338 310.975H305.9C306.108 310.975 306.308 311.057 306.455 311.205C306.603 311.352 306.685 311.552 306.685 311.761C306.685 311.969 306.603 312.169 306.455 312.317C306.308 312.464 306.108 312.547 305.9 312.547Z" fill="#CCCCCC"/>
<path d="M396.585 331.414H362.824C360.846 331.411 358.95 330.624 357.552 329.224C356.154 327.824 355.367 325.925 355.365 323.945V290.142C355.367 288.162 356.154 286.264 357.552 284.864C358.95 283.464 360.846 282.676 362.824 282.674H396.585C398.562 282.676 400.458 283.464 401.857 284.864C403.255 286.264 404.041 288.162 404.044 290.142V323.945C404.041 325.925 403.255 327.824 401.857 329.224C400.458 330.624 398.562 331.411 396.585 331.414ZM362.824 284.246C361.262 284.248 359.766 284.87 358.662 285.975C357.558 287.08 356.937 288.579 356.935 290.142V323.945C356.937 325.509 357.558 327.007 358.662 328.112C359.766 329.218 361.262 329.84 362.824 329.841H396.585C398.146 329.84 399.643 329.218 400.747 328.112C401.851 327.007 402.472 325.509 402.473 323.945V290.142C402.472 288.579 401.851 287.08 400.747 285.975C399.643 284.87 398.146 284.248 396.585 284.246H362.824Z" fill="#CCCCCC"/>
<path d="M390.696 315.691H368.712C368.087 315.691 367.489 315.442 367.047 315C366.606 314.558 366.357 313.958 366.356 313.333V300.755C366.357 300.13 366.606 299.53 367.047 299.088C367.489 298.646 368.087 298.397 368.712 298.396H390.696C391.32 298.397 391.919 298.646 392.361 299.088C392.802 299.53 393.051 300.13 393.051 300.755V313.333C393.051 313.958 392.802 314.558 392.361 315C391.919 315.442 391.32 315.691 390.696 315.691ZM368.712 299.969C368.504 299.969 368.304 300.052 368.157 300.199C368.01 300.347 367.927 300.546 367.927 300.755V313.333C367.927 313.541 368.01 313.741 368.157 313.888C368.304 314.036 368.504 314.119 368.712 314.119H390.696C390.904 314.119 391.104 314.036 391.251 313.888C391.398 313.741 391.481 313.541 391.481 313.333V300.755C391.481 300.546 391.398 300.347 391.251 300.199C391.104 300.052 390.904 299.969 390.696 299.969H368.712Z" fill="#CCCCCC"/>
<path d="M379.704 309.118C379.263 309.119 378.83 308.996 378.456 308.762L366.725 301.422C366.549 301.311 366.424 301.135 366.377 300.932C366.331 300.729 366.367 300.516 366.477 300.339C366.587 300.163 366.763 300.037 366.966 299.99C367.168 299.943 367.381 299.978 367.558 300.088L379.288 307.429C379.413 307.506 379.557 307.547 379.704 307.547C379.851 307.547 379.995 307.506 380.12 307.429L391.85 300.088C392.026 299.978 392.239 299.943 392.442 299.99C392.645 300.037 392.82 300.163 392.931 300.339C393.041 300.516 393.077 300.729 393.03 300.932C392.984 301.135 392.859 301.311 392.682 301.422L380.953 308.762C380.578 308.996 380.145 309.119 379.704 309.118Z" fill="#CCCCCC"/>
<path d="M236.415 331.414H202.654C200.676 331.411 198.78 330.624 197.382 329.224C195.984 327.824 195.197 325.925 195.195 323.945V290.142C195.197 288.162 195.984 286.264 197.382 284.864C198.78 283.464 200.676 282.676 202.654 282.674H236.415C238.392 282.676 240.288 283.464 241.687 284.864C243.085 286.264 243.872 288.162 243.874 290.142V323.945C243.872 325.925 243.085 327.824 241.687 329.224C240.288 330.624 238.392 331.411 236.415 331.414ZM202.654 284.246C201.092 284.248 199.596 284.87 198.492 285.975C197.388 287.08 196.767 288.579 196.765 290.142V323.945C196.767 325.509 197.388 327.007 198.492 328.112C199.596 329.218 201.092 329.84 202.654 329.841H236.415C237.976 329.84 239.473 329.218 240.577 328.112C241.681 327.007 242.302 325.509 242.304 323.945V290.142C242.302 288.579 241.681 287.08 240.577 285.975C239.473 284.87 237.976 284.248 236.415 284.246H202.654Z" fill="#CCCCCC"/>
<path d="M230.526 315.691H208.542C207.918 315.691 207.319 315.442 206.878 315C206.436 314.558 206.188 313.958 206.187 313.333V300.755C206.188 300.13 206.436 299.53 206.878 299.088C207.319 298.646 207.918 298.397 208.542 298.396H230.526C231.151 298.397 231.75 298.646 232.191 299.088C232.633 299.53 232.881 300.13 232.882 300.755V313.333C232.881 313.958 232.633 314.558 232.191 315C231.75 315.442 231.151 315.691 230.526 315.691ZM208.542 299.969C208.334 299.969 208.135 300.052 207.988 300.199C207.84 300.347 207.758 300.546 207.757 300.755V313.333C207.758 313.541 207.84 313.741 207.988 313.888C208.135 314.036 208.334 314.119 208.542 314.119H230.526C230.735 314.119 230.934 314.036 231.081 313.888C231.229 313.741 231.311 313.541 231.312 313.333V300.755C231.311 300.546 231.229 300.347 231.081 300.199C230.934 300.052 230.735 299.969 230.526 299.969H208.542Z" fill="#CCCCCC"/>
<path d="M227.042 315.691H211.242C210.966 315.691 210.695 315.618 210.457 315.48C210.218 315.342 210.02 315.144 209.882 314.905C209.744 314.666 209.671 314.395 209.671 314.119C209.671 313.843 209.744 313.571 209.882 313.332L214.641 305.078C214.779 304.839 214.977 304.641 215.216 304.503C215.455 304.365 215.726 304.292 216.001 304.292C216.277 304.292 216.548 304.365 216.786 304.503C217.025 304.641 217.223 304.839 217.361 305.078L220.435 310.409L222.216 307.321C222.354 307.082 222.552 306.883 222.791 306.745C223.029 306.607 223.3 306.534 223.576 306.534C223.851 306.534 224.122 306.607 224.361 306.745C224.6 306.883 224.798 307.082 224.936 307.321L228.402 313.332C228.54 313.571 228.613 313.843 228.613 314.119C228.613 314.395 228.54 314.666 228.402 314.905C228.264 315.144 228.066 315.342 227.827 315.48C227.589 315.618 227.318 315.691 227.042 315.691ZM227.042 314.119L223.576 308.107L221.115 312.374C221.046 312.494 220.947 312.593 220.828 312.662C220.708 312.731 220.573 312.767 220.435 312.767C220.297 312.767 220.162 312.731 220.042 312.662C219.923 312.593 219.824 312.494 219.755 312.374L216.001 305.864L211.242 314.119H227.042Z" fill="#CCCCCC"/>
<path d="M228.171 304.686C229.038 304.686 229.741 303.982 229.741 303.113C229.741 302.245 229.038 301.541 228.171 301.541C227.304 301.541 226.601 302.245 226.601 303.113C226.601 303.982 227.304 304.686 228.171 304.686Z" fill="#CCCCCC"/>
<path d="M603.639 509.527L594.013 509.526L589.434 472.352L603.641 472.352L603.639 509.527Z" fill="#FFB8B8"/>
<path d="M606.094 518.869L575.057 518.867V518.474C575.057 516.886 575.369 515.313 575.976 513.846C576.583 512.378 577.473 511.045 578.595 509.922C579.717 508.798 581.048 507.907 582.514 507.3C583.98 506.692 585.551 506.379 587.137 506.379H587.138L606.094 506.38L606.094 518.869Z" fill="#2F2E41"/>
<path d="M642.896 509.527L633.27 509.526L628.691 472.352L642.898 472.352L642.896 509.527Z" fill="#FFB8B8"/>
<path d="M645.351 518.869L614.313 518.867V518.474C614.313 516.886 614.626 515.313 615.233 513.846C615.84 512.378 616.73 511.045 617.852 509.922C618.974 508.798 620.305 507.907 621.771 507.3C623.237 506.692 624.808 506.379 626.394 506.379H626.395L645.351 506.38L645.351 518.869Z" fill="#2F2E41"/>
<path d="M640.01 493.412L631.095 490.696C630.431 490.495 629.841 490.101 629.399 489.565C628.956 489.029 628.682 488.374 628.61 487.683L620.298 408.814C620.292 408.719 620.25 408.63 620.18 408.564C620.11 408.499 620.018 408.463 619.923 408.463C619.827 408.453 619.732 408.482 619.657 408.542C619.582 408.602 619.534 408.689 619.522 408.784L605.6 485.195C605.516 485.659 605.34 486.101 605.082 486.495C604.825 486.89 604.491 487.229 604.101 487.492C603.711 487.756 603.272 487.939 602.81 488.03C602.348 488.122 601.873 488.12 601.412 488.025L590.018 485.675C589.183 485.5 588.438 485.029 587.922 484.348C587.405 483.668 587.151 482.824 587.206 481.971L595.674 356.731L653.098 350.527L644.565 490.243C644.51 491.141 644.115 491.984 643.461 492.601C642.807 493.219 641.943 493.564 641.044 493.566C640.694 493.566 640.346 493.514 640.01 493.412Z" fill="#2F2E41"/>
<path d="M639.956 247.667C650.606 247.667 659.24 239.022 659.24 228.359C659.24 217.695 650.606 209.051 639.956 209.051C629.306 209.051 620.672 217.695 620.672 228.359C620.672 239.022 629.306 247.667 639.956 247.667Z" fill="#FFB8B8"/>
<path d="M595.586 357.466L608.037 278.971C608.699 274.797 610.241 270.813 612.561 267.283C614.881 263.752 617.925 260.757 621.49 258.496C625.056 256.235 629.062 254.761 633.241 254.171C637.42 253.58 641.677 253.888 645.728 255.073C652.811 257.124 658.876 261.746 662.738 268.035C666.6 274.324 667.982 281.828 666.614 289.083L653.587 359.183L595.586 357.466Z" fill="#396AFF"/>
<path d="M645.28 371.511C646.243 370.874 647.055 370.033 647.659 369.048C648.262 368.063 648.643 366.958 648.774 365.81C648.904 364.661 648.782 363.498 648.415 362.403C648.049 361.307 647.447 360.305 646.651 359.467L659.525 334.507L645.027 336.056L635.025 359.521C633.708 360.952 632.961 362.817 632.926 364.763C632.891 366.708 633.57 368.599 634.834 370.077C636.098 371.554 637.859 372.517 639.784 372.781C641.71 373.045 643.665 372.593 645.28 371.511Z" fill="#FFB8B8"/>
<path d="M648.036 355.065C647.324 354.964 646.659 354.648 646.131 354.16L641.206 349.603C640.674 349.108 640.306 348.462 640.153 347.751C639.999 347.041 640.068 346.3 640.348 345.63L650.192 322.268L648.796 276.107C648.996 274.623 649.487 273.193 650.24 271.899C650.993 270.605 651.993 269.473 653.184 268.566C654.374 267.66 655.731 266.997 657.178 266.616C658.624 266.234 660.131 266.142 661.613 266.345C663.095 266.547 664.522 267.04 665.814 267.795C667.105 268.55 668.236 269.553 669.14 270.745C670.044 271.938 670.705 273.297 671.084 274.746C671.464 276.194 671.554 277.704 671.351 279.187L673.738 308.205C674.464 317.012 671.97 325.783 666.721 332.887L651.37 353.666C651.074 354.065 650.698 354.398 650.266 354.642C649.834 354.886 649.355 355.037 648.861 355.084C648.586 355.11 648.309 355.104 648.036 355.065Z" fill="#396AFF"/>
<path d="M528.905 217.839C529.115 218.975 529.572 220.052 530.242 220.992C530.913 221.933 531.781 222.715 532.786 223.283C533.792 223.852 534.909 224.192 536.06 224.281C537.21 224.371 538.367 224.206 539.447 223.799L557.384 245.401L561.612 231.43L543.931 213.059C543.128 211.287 541.704 209.871 539.928 209.08C538.153 208.289 536.149 208.178 534.297 208.767C532.445 209.356 530.873 210.605 529.88 212.277C528.886 213.949 528.539 215.928 528.905 217.839Z" fill="#FFB8B8"/>
<path d="M542.957 226.793C543.327 226.176 543.876 225.686 544.531 225.389L550.643 222.625C551.305 222.327 552.043 222.24 552.756 222.376C553.47 222.512 554.124 222.863 554.631 223.384L572.28 241.568L615.279 258.279C616.566 259.042 617.69 260.052 618.587 261.251C619.483 262.449 620.135 263.813 620.505 265.265C620.875 266.716 620.956 268.226 620.742 269.708C620.529 271.19 620.026 272.616 619.262 273.904C618.498 275.191 617.488 276.315 616.29 277.212C615.092 278.108 613.729 278.759 612.279 279.128C610.829 279.497 609.321 279.576 607.841 279.36C606.36 279.145 604.937 278.64 603.652 277.873L576.033 268.761C567.65 265.997 560.556 260.277 556.069 252.668L542.944 230.412C542.691 229.984 542.532 229.508 542.476 229.014C542.42 228.52 542.468 228.02 542.617 227.546C542.7 227.283 542.814 227.03 542.957 226.793Z" fill="#396AFF"/>
<path opacity="0.1" d="M655.597 295.31L654.812 320.466L640.348 345.63L652.425 317.587L655.597 295.31Z" fill="black"/>
<path d="M637.747 231.988C636.535 232.145 635.308 231.858 634.293 231.178C633.278 230.498 632.543 229.472 632.226 228.291C631.921 226.932 631.251 225.682 630.29 224.674C629.329 223.667 628.111 222.941 626.769 222.573C623.232 221.764 618.908 223.431 616.316 220.748C615.761 220.135 615.36 219.399 615.145 218.601C614.929 217.802 614.907 216.964 615.079 216.155C615.557 213.547 617.42 211.577 619.447 210.001C623.714 206.701 628.877 204.769 634.26 204.459C637.046 204.378 639.834 204.517 642.599 204.874C645.493 205.057 648.356 205.581 651.128 206.435C654.286 207.628 657.093 209.599 659.289 212.166C661.485 214.733 662.999 217.812 663.692 221.12C664.326 224.438 664.228 227.854 663.407 231.131C662.585 234.407 661.06 237.464 658.936 240.089C656.394 243.259 653.116 245.758 649.388 247.368C648.5 247.788 647.483 247.839 646.557 247.512C644.235 246.587 644.614 243.707 645.673 241.787C646.806 239.731 648.549 237.741 647.638 235.239C647.182 234.079 646.305 233.134 645.183 232.593C642.875 231.415 640.293 231.693 637.811 231.98L637.747 231.988Z" fill="#2F2E41"/>
<path d="M522.461 242.891H283.777C280.342 242.887 277.05 241.519 274.621 239.087C272.192 236.656 270.826 233.359 270.822 229.92V178.822C270.826 175.383 272.192 172.086 274.621 169.654C277.05 167.222 280.342 165.854 283.777 165.851H522.461C525.896 165.855 529.189 167.222 531.617 169.654C534.046 172.086 535.412 175.383 535.416 178.822V229.92C535.412 233.359 534.046 236.656 531.617 239.087C529.189 241.519 525.896 242.887 522.461 242.891Z" fill="white"/>
<path d="M522.461 243.284H283.777C280.238 243.28 276.846 241.871 274.343 239.366C271.841 236.86 270.434 233.463 270.43 229.92V178.822C270.434 175.279 271.841 171.882 274.343 169.377C276.846 166.871 280.238 165.462 283.777 165.458H522.461C526 165.462 529.393 166.871 531.895 169.377C534.397 171.882 535.805 175.279 535.809 178.822V229.92C535.805 233.463 534.397 236.86 531.895 239.366C529.393 241.871 526 243.28 522.461 243.284ZM283.777 167.03C280.655 167.034 277.661 168.277 275.453 170.488C273.245 172.699 272.004 175.696 272 178.822V229.92C272.004 233.047 273.245 236.044 275.453 238.254C277.661 240.465 280.655 241.709 283.777 241.712H522.461C525.584 241.709 528.577 240.465 530.785 238.254C532.993 236.044 534.235 233.047 534.238 229.92V178.822C534.235 175.696 532.993 172.699 530.785 170.488C528.577 168.277 525.584 167.034 522.461 167.03H283.777Z" fill="#3F3D56"/>
<path d="M493.411 230.313H312.827C309.393 230.309 306.1 228.941 303.671 226.509C301.243 224.078 299.876 220.781 299.873 217.342V190.614C299.876 187.175 301.243 183.878 303.671 181.446C306.1 179.014 309.393 177.646 312.827 177.643H493.411C496.845 177.646 500.138 179.014 502.567 181.446C504.996 183.878 506.362 187.175 506.366 190.614V217.342C506.362 220.781 504.996 224.078 502.567 226.509C500.138 228.941 496.845 230.309 493.411 230.313Z" fill="#F2F2F2"/>
<path d="M351.688 215.907C360.245 215.907 367.181 208.962 367.181 200.395C367.181 191.828 360.245 184.883 351.688 184.883C343.132 184.883 336.196 191.828 336.196 200.395C336.196 208.962 343.132 215.907 351.688 215.907Z" fill="#FF6584"/>
<path d="M482.189 228.748L460.321 210.385L438.83 192.338C438.263 191.862 437.546 191.601 436.806 191.603C436.066 191.604 435.35 191.867 434.784 192.346L413.363 210.475L408.131 214.904L400.241 208.279L376.265 188.145C375.698 187.669 374.981 187.409 374.241 187.41C373.501 187.412 372.785 187.675 372.22 188.153L348.322 208.379L324.047 228.923C323.924 229.027 323.836 229.166 323.795 229.322C323.754 229.478 323.762 229.643 323.817 229.794C323.873 229.946 323.973 230.076 324.105 230.168C324.238 230.261 324.395 230.31 324.556 230.309L374.324 230.213L390.077 230.183L389.923 230.314L436.88 230.223L481.686 230.137C481.847 230.136 482.004 230.086 482.136 229.994C482.268 229.901 482.368 229.77 482.423 229.619C482.478 229.467 482.485 229.302 482.443 229.146C482.401 228.991 482.312 228.852 482.189 228.748Z" fill="#3F3D56"/>
<path d="M687.215 520H536.467C536.259 520 536.059 519.917 535.912 519.77C535.764 519.622 535.682 519.422 535.682 519.214C535.682 519.005 535.764 518.805 535.912 518.658C536.059 518.511 536.259 518.428 536.467 518.428H687.215C687.423 518.428 687.622 518.511 687.77 518.658C687.917 518.805 688 519.005 688 519.214C688 519.422 687.917 519.622 687.77 519.77C687.622 519.917 687.423 520 687.215 520Z" fill="#CCCCCC"/>
<path d="M474.271 103.7C473.644 102.679 472.816 101.798 471.837 101.108C470.859 100.419 469.75 99.9365 468.579 99.6903C468.15 99.6 467.714 99.5448 467.276 99.5252L407.456 45.9744C406.281 44.7652 404.713 44.0153 403.035 43.8597C402.704 43.8217 402.371 43.8111 402.038 43.8283C400.658 43.8911 399.326 44.3552 398.205 45.1638C397.084 45.9725 396.223 47.0907 395.726 48.3816C395.23 49.6726 395.12 51.0804 395.41 52.433C395.7 53.7855 396.377 55.0242 397.359 55.9975L420.261 75.9886L457.87 108.809C457.901 109.427 457.993 110.041 458.145 110.641C458.595 112.379 459.562 113.939 460.918 115.114C462.274 116.289 463.954 117.024 465.737 117.221C467.363 117.411 469.009 117.139 470.487 116.435C471.659 115.886 472.698 115.089 473.533 114.1C473.62 113.998 473.698 113.903 473.777 113.793C474.875 112.361 475.51 110.627 475.599 108.824C475.687 107.02 475.224 105.233 474.271 103.7Z" fill="#FFB8B8"/>
<path d="M371.951 155.308L371.394 132.621L370.923 113.793L370.601 100.618L369.965 74.9351C369.839 73.56 369.316 72.2514 368.46 71.1689C367.604 70.0864 366.451 69.2769 365.143 68.8393C363.835 68.4016 362.428 68.3547 361.094 68.7043C359.76 69.0539 358.556 69.7849 357.63 70.8079C357.412 71.0417 357.215 71.2942 357.041 71.5626C356.075 72.9487 355.64 74.6374 355.816 76.3187L357.214 113.793L357.913 132.621L358.808 156.637C358.55 156.99 358.316 157.36 358.109 157.745C357.551 158.806 357.213 159.968 357.118 161.163C357.022 162.357 357.17 163.559 357.552 164.695C357.951 165.886 358.597 166.979 359.448 167.901C360.3 168.824 361.337 169.556 362.491 170.048C363.645 170.541 364.89 170.783 366.145 170.758C367.399 170.734 368.634 170.444 369.768 169.907C371.086 169.283 372.23 168.344 373.099 167.173C373.967 166.001 374.535 164.634 374.751 163.191C374.966 161.748 374.824 160.274 374.336 158.899C373.847 157.524 373.029 156.291 371.951 155.308Z" fill="#FFB8B8"/>
<path d="M425.812 91.0433L420.261 75.989L411.279 51.6034C410.631 49.8291 409.592 48.2237 408.24 46.9064C406.887 45.589 405.256 44.5935 403.467 43.9937C403.326 43.9465 403.177 43.8994 403.035 43.86C401.302 43.3333 399.475 43.1885 397.681 43.4354C395.887 43.6824 394.167 44.3153 392.64 45.2908L362.388 64.5037C359.618 66.2592 357.637 69.0243 356.865 72.2148C356.093 75.4053 356.59 78.7713 358.25 81.6019C362.034 88.1517 366.156 94.4991 370.601 100.618C374.126 105.421 380.69 105.932 381.829 113.794H404.134L426.715 93.4959L425.812 91.0433Z" fill="#CCCCCC"/>
<path d="M79.4289 275.029C89.4767 275.029 97.6221 266.874 97.6221 256.813C97.6221 246.753 89.4767 238.598 79.4289 238.598C69.3812 238.598 61.2358 246.753 61.2358 256.813C61.2358 266.874 69.3812 275.029 79.4289 275.029Z" fill="#A0616A"/>
<path d="M124.093 244.274C124.272 244.417 124.446 244.568 124.614 244.728C125.45 245.516 126.11 246.473 126.551 247.534C126.992 248.596 127.204 249.738 127.173 250.888C127.142 252.037 126.869 253.167 126.372 254.203C125.874 255.239 125.164 256.158 124.287 256.9C124.082 257.072 123.869 257.233 123.648 257.382L124.879 299.004C124.914 300.366 124.51 301.704 123.725 302.818C122.941 303.932 121.819 304.763 120.525 305.188L120.45 305.204L86.6981 308.803C85.7805 308.901 84.8526 308.816 83.9681 308.552C83.0836 308.289 82.2599 307.853 81.5447 307.269C80.8294 306.685 80.2368 305.965 79.8009 305.151C79.3651 304.336 79.0947 303.444 79.0054 302.524C78.9161 301.604 79.0097 300.676 79.2807 299.793C79.5516 298.91 79.9947 298.089 80.5842 297.378C81.1737 296.667 81.898 296.08 82.7153 295.651C83.5326 295.222 84.4267 294.96 85.346 294.879L109.406 292.757L113.567 256.712C113.295 256.471 113.04 256.211 112.804 255.934C111.5 254.388 110.815 252.412 110.884 250.389C110.953 248.367 111.771 246.442 113.178 244.988C114.585 243.535 116.481 242.657 118.498 242.525C120.515 242.393 122.509 243.016 124.093 244.274Z" fill="#A0616A"/>
<path d="M109.393 510.331H118.474L122.794 475.26H109.391L109.393 510.331Z" fill="#A0616A"/>
<path d="M107.077 507.363L124.961 507.362C126.457 507.362 127.94 507.657 129.323 508.231C130.706 508.804 131.962 509.645 133.021 510.704C134.079 511.764 134.918 513.022 135.491 514.407C136.064 515.791 136.359 517.275 136.359 518.774V519.144L107.077 519.145L107.077 507.363Z" fill="#2F2E41"/>
<path d="M19.1309 497.76L26.9336 502.411L48.5667 474.49L37.0502 467.625L19.1309 497.76Z" fill="#A0616A"/>
<path d="M18.6574 494.022L34.0239 503.183C35.3099 503.95 36.4332 504.963 37.3282 506.164C38.2233 507.365 38.8734 508.731 39.2412 510.183C39.6091 511.636 39.6876 513.147 39.4723 514.63C39.257 516.113 38.752 517.539 37.9863 518.827L37.7968 519.145L12.6372 504.146L18.6574 494.022Z" fill="#2F2E41"/>
<path d="M120.617 497.945H110.448C109.625 497.946 108.83 497.642 108.218 497.09C107.606 496.539 107.219 495.78 107.134 494.96L96.8818 398.473C96.8559 398.23 96.751 398.003 96.5831 397.825C96.4152 397.648 96.1938 397.531 95.9529 397.492C95.712 397.454 95.4651 397.495 95.2503 397.611C95.0355 397.727 94.8646 397.91 94.7641 398.133L76.2697 439.136L43.5264 492.594C43.1026 493.28 42.4465 493.789 41.6781 494.03C40.9097 494.27 40.0806 494.226 39.3424 493.904L26.2617 488.142C25.8292 487.951 25.4421 487.67 25.1261 487.319C24.8101 486.967 24.5724 486.552 24.4288 486.101C24.2851 485.65 24.2388 485.174 24.2929 484.704C24.347 484.234 24.5003 483.781 24.7426 483.375L54.8428 432.912L64.0742 390.394C61.1708 371.955 73.6177 344.542 73.7439 344.267L73.8056 344.133L108.091 330.716L108.263 330.927C121.784 375.353 130.023 423.164 123.94 494.887C123.865 495.719 123.483 496.493 122.868 497.058C122.254 497.624 121.451 497.94 120.617 497.945Z" fill="#2F2E41"/>
<path d="M72.4244 348.626L72.2648 348.29C72.1885 348.129 64.5649 332.03 58.688 314.823C57.5586 311.496 57.1316 307.97 57.4342 304.468C57.7367 300.967 58.7622 297.567 60.4456 294.483C62.151 291.368 64.484 288.641 67.2969 286.475C70.1098 284.309 73.3412 282.752 76.7866 281.902C82.7678 280.467 89.065 281.23 94.5309 284.054C99.9968 286.878 104.268 291.574 106.565 297.286C111.227 308.958 109.741 321.416 108.343 331.213L108.315 331.409L108.137 331.495L72.4244 348.626Z" fill="#3F3D56"/>
<path d="M101.488 246.523H72.5991V233.915C78.9398 231.393 85.1445 229.248 88.8952 233.915C92.2349 233.915 95.4378 235.243 97.7993 237.608C100.161 239.972 101.488 243.179 101.488 246.523Z" fill="#2F2E41"/>
<path d="M70.9995 231.69C53.7294 231.69 48.8955 253.365 48.8955 265.592C48.8955 272.412 51.9756 274.851 56.8157 275.676L58.525 266.548L62.5285 276.069C63.8881 276.075 65.3163 276.049 66.7971 276.022L68.1545 273.223L71.1814 275.971C83.3048 275.99 93.1032 277.759 93.1032 265.592C93.1032 253.365 88.8638 231.69 70.9995 231.69Z" fill="#2F2E41"/>
<path d="M151.533 520H0.785145C0.576911 520 0.377206 519.917 0.229963 519.77C0.0827198 519.622 0 519.422 0 519.214C0 519.005 0.0827198 518.805 0.229963 518.658C0.377206 518.511 0.576911 518.428 0.785145 518.428H151.533C151.741 518.428 151.941 518.511 152.088 518.658C152.235 518.805 152.318 519.005 152.318 519.214C152.318 519.422 152.235 519.622 152.088 519.77C151.941 519.917 151.741 520 151.533 520Z" fill="#CCCCCC"/>
<path d="M154.368 261.365H120.606C118.629 261.362 116.733 260.575 115.335 259.175C113.936 257.775 113.15 255.877 113.147 253.897V220.093C113.15 218.113 113.936 216.215 115.335 214.815C116.733 213.415 118.629 212.627 120.606 212.625H154.368C156.345 212.627 158.241 213.415 159.639 214.815C161.038 216.215 161.824 218.113 161.826 220.093V253.897C161.824 255.877 161.038 257.775 159.639 259.175C158.241 260.575 156.345 261.362 154.368 261.365Z" fill="white"/>
<path d="M154.368 261.365H120.606C118.629 261.362 116.733 260.575 115.335 259.175C113.936 257.775 113.15 255.877 113.147 253.897V220.093C113.15 218.113 113.936 216.215 115.335 214.815C116.733 213.415 118.629 212.627 120.606 212.625H154.368C156.345 212.627 158.241 213.415 159.639 214.815C161.038 216.215 161.824 218.113 161.826 220.093V253.897C161.824 255.877 161.038 257.775 159.639 259.175C158.241 260.575 156.345 261.362 154.368 261.365ZM120.606 214.197C119.045 214.199 117.548 214.821 116.444 215.926C115.34 217.031 114.719 218.53 114.718 220.093V253.897C114.719 255.46 115.34 256.958 116.444 258.064C117.548 259.169 119.045 259.791 120.606 259.792H154.368C155.929 259.791 157.426 259.169 158.53 258.064C159.633 256.958 160.254 255.46 160.256 253.897V220.093C160.254 218.53 159.633 217.031 158.53 215.926C157.426 214.821 155.929 214.199 154.368 214.197H120.606Z" fill="#3F3D56"/>
<path d="M148.479 247.608H126.495C125.87 247.608 125.271 247.359 124.83 246.917C124.388 246.475 124.14 245.875 124.139 245.25V228.741C124.14 228.116 124.388 227.516 124.83 227.074C125.271 226.632 125.87 226.384 126.495 226.383H132.683C133.086 226.381 133.482 226.484 133.833 226.68C134.185 226.877 134.48 227.161 134.69 227.505L136.415 230.313H148.479C149.103 230.314 149.702 230.563 150.143 231.005C150.585 231.447 150.833 232.047 150.834 232.672V245.25C150.833 245.875 150.585 246.475 150.143 246.917C149.702 247.359 149.103 247.608 148.479 247.608Z" fill="#396AFF"/>
<path d="M147.764 255.948C147.874 256.149 147.975 256.356 148.068 256.569C148.533 257.62 148.771 258.758 148.766 259.908C148.761 261.057 148.513 262.193 148.039 263.24C147.565 264.287 146.876 265.222 146.016 265.984C145.156 266.746 144.145 267.317 143.049 267.66C142.794 267.739 142.535 267.805 142.273 267.856L127.277 306.695C126.782 307.964 125.89 309.04 124.736 309.762C123.581 310.484 122.225 310.814 120.868 310.703L120.793 310.689L88.2903 300.892C87.4066 300.626 86.5844 300.187 85.8711 299.6C85.1579 299.014 84.5677 298.292 84.1347 297.476C83.7017 296.66 83.4344 295.766 83.3483 294.846C83.2623 293.926 83.3591 292.998 83.6332 292.116C83.9073 291.234 84.3533 290.414 84.9454 289.706C85.5375 288.997 86.264 288.412 87.0829 287.986C87.9018 287.56 88.7969 287.301 89.7165 287.223C90.6361 287.145 91.5619 287.251 92.4406 287.533L115.438 294.926L133.242 263.322C133.085 262.994 132.951 262.656 132.841 262.309C132.237 260.377 132.373 258.29 133.22 256.452C134.068 254.615 135.567 253.159 137.427 252.366C139.287 251.573 141.375 251.501 143.285 252.163C145.195 252.825 146.791 254.174 147.764 255.948Z" fill="#A0616A"/>
</g>
<defs>
<clipPath id="clip0_107_57884">
<rect width="688" height="520" fill="white"/>
</clipPath>
</defs>
</svg>
