<svg width="16" height="16" viewBox="0 0 16 16" fill="none" xmlns="http://www.w3.org/2000/svg">
<g clip-path="url(#clip0_358_7)">
<circle cx="8" cy="8" r="8" fill="white"/>
<path d="M8 15.5C9.98912 15.5 11.8968 14.7098 13.3033 13.3033C14.7098 11.8968 15.5 9.98912 15.5 8C15.5 6.01088 14.7098 4.10322 13.3033 2.6967C11.8968 1.29018 9.98912 0.5 8 0.5C6.01088 0.5 4.10322 1.29018 2.6967 2.6967C1.29018 4.10322 0.5 6.01088 0.5 8C0.5 9.98912 1.29018 11.8968 2.6967 13.3033C4.10322 14.7098 6.01088 15.5 8 15.5ZM5.62695 5.62695C5.90234 5.35156 6.34766 5.35156 6.62012 5.62695L7.99707 7.00391L9.37402 5.62695C9.64941 5.35156 10.0947 5.35156 10.3672 5.62695C10.6396 5.90234 10.6426 6.34766 10.3672 6.62012L8.99023 7.99707L10.3672 9.37402C10.6426 9.64941 10.6426 10.0947 10.3672 10.3672C10.0918 10.6396 9.64648 10.6426 9.37402 10.3672L7.99707 8.99023L6.62012 10.3672C6.34473 10.6426 5.89941 10.6426 5.62695 10.3672C5.35449 10.0918 5.35156 9.64648 5.62695 9.37402L7.00391 7.99707L5.62695 6.62012C5.35156 6.34473 5.35156 5.89941 5.62695 5.62695Z" fill="#636F84"/>
</g>
<defs>
<clipPath id="clip0_358_7">
<rect width="16" height="16" fill="white"/>
</clipPath>
</defs>
</svg>
