<svg width="833" height="584" viewBox="0 0 833 584" fill="none" xmlns="http://www.w3.org/2000/svg">
<g clip-path="url(#clip0_266_40470)">
<path d="M680.373 366.254H143.872C140.21 366.25 136.699 364.793 134.109 362.204C131.519 359.615 130.063 356.104 130.059 352.442V21.6753C130.062 18.9927 131.129 16.4207 133.026 14.5238C134.923 12.6268 137.495 11.5597 140.178 11.5566H683.892C686.621 11.5597 689.238 12.6453 691.168 14.575C693.098 16.5048 694.184 19.1212 694.187 21.8503V352.442C694.183 356.104 692.726 359.615 690.136 362.204C687.547 364.793 684.035 366.25 680.373 366.254Z" fill="#F2F2F2"/>
<path d="M660.801 346.694H160.796C153.467 346.694 147.504 341.111 147.504 334.249V46.2125C147.504 41.1232 151.923 36.9824 157.354 36.9824H664.081C669.602 36.9824 674.094 41.1914 674.094 46.3646V334.249C674.094 341.111 668.131 346.694 660.801 346.694Z" fill="white"/>
<path d="M693.993 20.8848H129.863V13.8532C129.869 10.1792 131.331 6.6574 133.93 4.06033C136.529 1.46326 140.053 0.00303529 143.727 0H680.129C683.804 0.0030176 687.327 1.46324 689.926 4.06031C692.525 6.65738 693.988 10.1792 693.993 13.8532V20.8848Z" fill="#CCCCCC"/>
<path d="M155.059 14.0479C157.039 14.0479 158.645 12.4426 158.645 10.4624C158.645 8.48222 157.039 6.87695 155.059 6.87695C153.078 6.87695 151.473 8.48222 151.473 10.4624C151.473 12.4426 153.078 14.0479 155.059 14.0479Z" fill="white"/>
<path d="M168.672 14.0479C170.652 14.0479 172.258 12.4426 172.258 10.4624C172.258 8.48222 170.652 6.87695 168.672 6.87695C166.691 6.87695 165.086 8.48222 165.086 10.4624C165.086 12.4426 166.691 14.0479 168.672 14.0479Z" fill="white"/>
<path d="M182.281 14.0479C184.262 14.0479 185.867 12.4426 185.867 10.4624C185.867 8.48222 184.262 6.87695 182.281 6.87695C180.301 6.87695 178.695 8.48222 178.695 10.4624C178.695 12.4426 180.301 14.0479 182.281 14.0479Z" fill="white"/>
<path d="M605.765 298.385H218.284C214.399 298.381 210.675 296.836 207.929 294.09C205.182 291.344 203.637 287.621 203.633 283.737V96.944C203.636 94.0394 204.791 91.2548 206.846 89.2009C208.9 87.147 211.685 85.9916 214.59 85.9883H609.284C612.235 85.9917 615.065 87.1655 617.152 89.2521C619.239 91.3388 620.413 94.168 620.416 97.119V283.737C620.412 287.621 618.867 291.344 616.12 294.09C613.374 296.836 609.65 298.381 605.765 298.385ZM214.59 87.6624C212.129 87.6652 209.769 88.644 208.029 90.3841C206.289 92.1241 205.31 94.4833 205.307 96.944V283.737C205.311 287.177 206.679 290.475 209.112 292.907C211.545 295.339 214.843 296.707 218.284 296.711H605.765C609.206 296.707 612.504 295.339 614.937 292.907C617.37 290.475 618.738 287.177 618.742 283.737V97.119C618.739 94.6118 617.742 92.2082 615.969 90.4353C614.196 88.6625 611.792 87.6653 609.284 87.6624H214.59Z" fill="#CCCCCC"/>
<path d="M231.676 283.736H592.368C595.921 283.736 599.328 282.325 601.84 279.814C604.352 277.302 605.763 273.895 605.763 270.343V114.192C605.763 110.64 604.352 107.233 601.84 104.722C599.328 102.21 595.921 100.799 592.368 100.799H231.676C228.124 100.799 224.717 102.21 222.205 104.722C219.693 107.233 218.281 110.64 218.281 114.192V270.343C218.281 273.895 219.693 277.302 222.205 279.814C224.717 282.325 228.124 283.736 231.676 283.736Z" fill="#F2F2F2"/>
<path d="M272.632 146.229C276.794 146.229 280.167 142.856 280.167 138.696C280.167 134.535 276.794 131.162 272.632 131.162C268.471 131.162 265.098 134.535 265.098 138.696C265.098 142.856 268.471 146.229 272.632 146.229Z" fill="#CCCCCC"/>
<path d="M272.632 174.69C276.794 174.69 280.167 171.317 280.167 167.157C280.167 162.996 276.794 159.623 272.632 159.623C268.471 159.623 265.098 162.996 265.098 167.157C265.098 171.317 268.471 174.69 272.632 174.69Z" fill="#CCCCCC"/>
<path d="M272.632 203.151C276.794 203.151 280.167 199.778 280.167 195.618C280.167 191.457 276.794 188.084 272.632 188.084C268.471 188.084 265.098 191.457 265.098 195.618C265.098 199.778 268.471 203.151 272.632 203.151Z" fill="#CCCCCC"/>
<path d="M272.632 231.61C276.794 231.61 280.167 228.237 280.167 224.076C280.167 219.916 276.794 216.543 272.632 216.543C268.471 216.543 265.098 219.916 265.098 224.076C265.098 228.237 268.471 231.61 272.632 231.61Z" fill="#CCCCCC"/>
<path d="M558.113 139.533H310.306C310.084 139.533 309.871 139.445 309.714 139.288C309.557 139.131 309.469 138.918 309.469 138.696C309.469 138.474 309.557 138.262 309.714 138.105C309.871 137.948 310.084 137.859 310.306 137.859H558.113C558.335 137.859 558.548 137.948 558.705 138.105C558.862 138.262 558.95 138.474 558.95 138.696C558.95 138.918 558.862 139.131 558.705 139.288C558.548 139.445 558.335 139.533 558.113 139.533Z" fill="#CCCCCC"/>
<path d="M558.113 167.994H310.306C310.084 167.994 309.871 167.906 309.714 167.749C309.557 167.592 309.469 167.379 309.469 167.157C309.469 166.935 309.557 166.722 309.714 166.565C309.871 166.409 310.084 166.32 310.306 166.32H558.113C558.335 166.32 558.548 166.409 558.705 166.565C558.862 166.722 558.95 166.935 558.95 167.157C558.95 167.379 558.862 167.592 558.705 167.749C558.548 167.906 558.335 167.994 558.113 167.994Z" fill="#CCCCCC"/>
<path d="M558.113 196.453H310.306C310.084 196.453 309.871 196.365 309.714 196.208C309.557 196.051 309.469 195.838 309.469 195.616C309.469 195.394 309.557 195.181 309.714 195.024C309.871 194.867 310.084 194.779 310.306 194.779H558.113C558.335 194.779 558.548 194.867 558.705 195.024C558.862 195.181 558.95 195.394 558.95 195.616C558.95 195.838 558.862 196.051 558.705 196.208C558.548 196.365 558.335 196.453 558.113 196.453Z" fill="#CCCCCC"/>
<path d="M558.113 224.914H310.306C310.084 224.914 309.871 224.826 309.714 224.669C309.557 224.512 309.469 224.299 309.469 224.077C309.469 223.855 309.557 223.642 309.714 223.485C309.871 223.328 310.084 223.24 310.306 223.24H558.113C558.335 223.24 558.548 223.328 558.705 223.485C558.862 223.642 558.95 223.855 558.95 224.077C558.95 224.299 558.862 224.512 558.705 224.669C558.548 224.826 558.335 224.914 558.113 224.914Z" fill="#CCCCCC"/>
<path d="M357.187 253.374H332.909C331.799 253.372 330.735 252.931 329.95 252.146C329.165 251.362 328.724 250.298 328.723 249.188V226.588C328.724 225.478 329.165 224.414 329.95 223.63C330.735 222.845 331.799 222.404 332.909 222.402H357.187C358.297 222.404 359.361 222.845 360.145 223.63C360.93 224.414 361.372 225.478 361.373 226.588V249.188C361.372 250.298 360.93 251.362 360.145 252.146C359.361 252.931 358.297 253.372 357.187 253.374Z" fill="#396AFF"/>
<path d="M411.605 253.375H387.327C386.217 253.373 385.153 252.932 384.368 252.147C383.583 251.363 383.142 250.299 383.141 249.189V198.129C383.142 197.019 383.583 195.955 384.368 195.171C385.153 194.386 386.217 193.945 387.327 193.943H411.605C412.715 193.945 413.779 194.386 414.563 195.171C415.348 195.955 415.79 197.019 415.791 198.129V249.189C415.79 250.299 415.348 251.363 414.563 252.147C413.779 252.932 412.715 253.373 411.605 253.375Z" fill="#396AFF"/>
<path d="M466.859 253.374H442.58C441.471 253.372 440.407 252.931 439.622 252.146C438.837 251.362 438.396 250.298 438.395 249.188V169.668C438.396 168.558 438.837 167.494 439.622 166.71C440.407 165.925 441.471 165.484 442.58 165.482H466.859C467.969 165.484 469.033 165.925 469.817 166.71C470.602 167.494 471.044 168.558 471.045 169.668V249.188C471.044 250.298 470.602 251.362 469.817 252.146C469.033 252.931 467.969 253.372 466.859 253.374Z" fill="#396AFF"/>
<path d="M523.789 253.373H499.51C498.4 253.372 497.336 252.931 496.552 252.146C495.767 251.362 495.325 250.298 495.324 249.188V142.045C495.325 140.935 495.767 139.871 496.552 139.087C497.336 138.302 498.4 137.861 499.51 137.859H523.789C524.898 137.861 525.962 138.302 526.747 139.087C527.532 139.871 527.973 140.935 527.974 142.045V249.188C527.973 250.298 527.532 251.362 526.747 252.146C525.962 252.931 524.898 253.372 523.789 253.373Z" fill="#396AFF"/>
<path d="M558.113 253.373H310.306C310.084 253.373 309.871 253.285 309.714 253.128C309.557 252.971 309.469 252.758 309.469 252.536C309.469 252.314 309.557 252.101 309.714 251.944C309.871 251.787 310.084 251.699 310.306 251.699H558.113C558.335 251.699 558.548 251.787 558.705 251.944C558.862 252.101 558.95 252.314 558.95 252.536C558.95 252.758 558.862 252.971 558.705 253.128C558.548 253.285 558.335 253.373 558.113 253.373Z" fill="#3F3D56"/>
<path d="M666.987 409.525C667.665 408.498 668.561 407.633 669.61 406.99C670.659 406.346 671.837 405.941 673.059 405.802C674.282 405.663 675.521 405.793 676.688 406.184C677.854 406.576 678.921 407.218 679.813 408.066L706.398 394.348L704.745 409.803L679.753 420.461C678.228 421.864 676.242 422.66 674.171 422.697C672.099 422.734 670.085 422.01 668.512 420.662C666.938 419.314 665.914 417.436 665.633 415.383C665.352 413.331 665.834 411.246 666.987 409.525Z" fill="#FFB8B8"/>
<path d="M689.861 415.289C689.258 414.815 688.813 414.17 688.586 413.437L686.471 406.608C686.244 405.868 686.249 405.076 686.487 404.339C686.725 403.602 687.183 402.956 687.8 402.488L709.347 386.215L732.683 342.929C733.661 341.67 734.877 340.617 736.261 339.828C737.646 339.039 739.173 338.53 740.754 338.331C742.336 338.132 743.941 338.247 745.478 338.668C747.015 339.089 748.454 339.809 749.713 340.786C750.972 341.764 752.026 342.98 752.815 344.364C753.604 345.749 754.112 347.275 754.311 348.856C754.51 350.437 754.395 352.042 753.974 353.579C753.553 355.116 752.833 356.555 751.855 357.813L738.578 385.83C734.55 394.334 727.57 401.085 718.936 404.828L693.684 415.779C693.198 415.99 692.674 416.095 692.144 416.09C691.615 416.084 691.093 415.967 690.612 415.747C690.345 415.624 690.093 415.47 689.861 415.289Z" fill="#3F3D56"/>
<path d="M752.441 324.864C763.797 324.864 773.003 315.66 773.003 304.305C773.003 292.951 763.797 283.746 752.441 283.746C741.085 283.746 731.879 292.951 731.879 304.305C731.879 315.66 741.085 324.864 752.441 324.864Z" fill="#FFB8B8"/>
<path d="M744.102 574.002L733.839 574.001L728.957 534.418L744.106 534.419L744.102 574.002Z" fill="#FFB8B8"/>
<path d="M726.506 571.068H746.3V583.53H714.043C714.043 581.893 714.365 580.273 714.992 578.761C715.618 577.249 716.536 575.875 717.693 574.718C718.851 573.561 720.225 572.643 721.737 572.017C723.249 571.391 724.869 571.068 726.506 571.068Z" fill="#2F2E41"/>
<path d="M777.59 574.004L767.327 574.004L762.445 534.42L777.594 534.422L777.59 574.004Z" fill="#FFB8B8"/>
<path d="M759.994 571.07H779.789V583.532H747.531C747.531 581.895 747.854 580.275 748.48 578.763C749.106 577.251 750.024 575.877 751.182 574.72C752.339 573.563 753.713 572.645 755.225 572.019C756.737 571.393 758.358 571.07 759.994 571.07Z" fill="#2F2E41"/>
<path d="M778.339 563.959L766.311 563.958C765.483 563.957 764.679 563.684 764.021 563.18C763.364 562.676 762.891 561.971 762.674 561.172L745.362 496.968C745.335 496.868 745.271 496.782 745.184 496.726C745.097 496.669 744.992 496.648 744.89 496.664C744.788 496.681 744.695 496.735 744.631 496.816C744.566 496.897 744.533 496.999 744.539 497.102L748.037 557.992C748.068 558.53 747.983 559.069 747.787 559.572C747.592 560.074 747.291 560.529 746.905 560.906C746.519 561.282 746.056 561.571 745.548 561.753C745.041 561.935 744.5 562.006 743.962 561.961L730.444 560.834C729.578 560.76 728.764 560.389 728.139 559.785C727.514 559.18 727.117 558.379 727.015 557.516L714.699 429.66L719.464 432.518L764.11 424.939L782.074 559.694C782.145 560.226 782.101 560.767 781.946 561.281C781.791 561.795 781.527 562.27 781.174 562.673C780.82 563.077 780.384 563.401 779.895 563.622C779.407 563.844 778.876 563.959 778.339 563.959Z" fill="#2F2E41"/>
<path d="M729.63 443.156C724.704 443.116 719.879 441.758 715.656 439.223C715.005 438.838 714.486 438.265 714.167 437.579C713.848 436.894 713.743 436.128 713.867 435.382C715.437 425.767 723.649 376.447 731.12 349.559C734.163 338.608 740.891 332.709 751.118 332.028C766.076 331.047 779.373 342.749 780.757 358.144C783.199 385.305 773.278 423.896 768.899 439.226C768.73 439.819 768.417 440.36 767.989 440.803C767.561 441.246 767.031 441.578 766.446 441.768C765.86 441.959 765.236 442.003 764.629 441.896C764.023 441.79 763.451 441.536 762.966 441.157L754.04 434.215C753.491 433.795 752.812 433.581 752.121 433.61C751.43 433.639 750.772 433.909 750.259 434.372C742.736 441.082 735.59 443.156 729.63 443.156Z" fill="#3F3D56"/>
<path opacity="0.2" d="M759.148 371.436L766.682 403.245L755.797 430.03L763.333 404.082L759.148 371.436Z" fill="black"/>
<path d="M764.176 321.212C766.005 321.246 767.823 320.918 769.524 320.245C770.273 319.957 771.05 319.72 771.797 319.431C778.396 316.883 782.743 309.856 782.899 302.785C783.055 295.714 779.393 288.851 773.954 284.328C768.516 279.805 761.473 277.482 754.419 276.945C746.822 276.366 738.266 278.292 734.02 284.619C732.89 286.303 732.1 288.346 732.769 290.379C732.97 290.992 733.328 291.543 733.808 291.974C735.704 293.661 737.594 292.393 739.527 292.281C742.184 292.127 744.57 294.277 745.427 296.796C746.285 299.315 745.907 302.088 745.214 304.657C744.687 306.202 744.354 307.808 744.224 309.436C744.168 310.253 744.322 311.07 744.67 311.81C745.019 312.551 745.551 313.19 746.215 313.667C747.875 314.671 750.055 314.09 751.716 313.089C753.378 312.087 754.813 310.694 756.607 309.957C758.401 309.22 760.812 309.384 761.856 311.018C762.188 311.613 762.412 312.261 762.52 312.934C763.456 317.199 763.24 316.948 764.176 321.212Z" fill="#2F2E41"/>
<path d="M732.302 545.287L603.547 500.454C601.337 499.682 599.524 498.065 598.506 495.958C597.487 493.851 597.346 491.426 598.113 489.216L631.572 393.156C632.138 391.538 633.322 390.21 634.866 389.464C636.41 388.718 638.187 388.614 639.806 389.176L772.915 435.525C774.562 436.101 775.913 437.306 776.672 438.876C777.431 440.446 777.536 442.253 776.964 443.901L743.542 539.855C742.77 542.064 741.153 543.876 739.046 544.895C736.939 545.913 734.513 546.054 732.302 545.287Z" fill="#E6E6E6"/>
<path d="M614.534 494.934L727.122 534.137C729.266 534.884 731.619 534.748 733.663 533.76C735.707 532.772 737.274 531.013 738.021 528.87L765.039 451.302C765.785 449.158 765.65 446.806 764.662 444.762C763.674 442.719 761.914 441.151 759.77 440.405L647.182 401.201C645.038 400.454 642.685 400.59 640.641 401.578C638.597 402.566 637.03 404.325 636.283 406.469L609.265 484.036C608.896 485.097 608.739 486.221 608.803 487.343C608.868 488.465 609.153 489.564 609.642 490.576C610.132 491.588 610.815 492.493 611.655 493.241C612.494 493.989 613.472 494.564 614.534 494.934Z" fill="white"/>
<path d="M642.808 440.434L637.232 438.493C636.93 438.387 636.682 438.166 636.542 437.878C636.403 437.59 636.384 437.258 636.489 436.955L638.431 431.38C638.536 431.078 638.757 430.83 639.046 430.691C639.334 430.551 639.666 430.532 639.968 430.637L645.544 432.579C645.846 432.684 646.094 432.906 646.234 433.194C646.373 433.482 646.392 433.814 646.287 434.116L644.346 439.691C644.24 439.993 644.019 440.241 643.73 440.381C643.442 440.52 643.11 440.539 642.808 440.434Z" fill="#396AFF"/>
<path d="M637.777 454.88L632.201 452.938C631.899 452.833 631.65 452.611 631.511 452.323C631.372 452.035 631.352 451.703 631.457 451.401L633.399 445.826C633.505 445.523 633.726 445.275 634.014 445.136C634.303 444.997 634.635 444.977 634.937 445.082L640.513 447.024C640.815 447.13 641.063 447.351 641.203 447.639C641.342 447.927 641.361 448.259 641.256 448.562L639.314 454.136C639.209 454.439 638.988 454.687 638.699 454.826C638.411 454.965 638.079 454.985 637.777 454.88Z" fill="#3F3D56"/>
<path d="M632.745 469.323L627.17 467.382C626.867 467.276 626.619 467.055 626.48 466.766C626.341 466.478 626.321 466.146 626.426 465.844L628.368 460.269C628.474 459.967 628.695 459.719 628.983 459.579C629.271 459.44 629.603 459.421 629.906 459.526L635.482 461.467C635.784 461.573 636.032 461.794 636.171 462.082C636.311 462.371 636.33 462.702 636.225 463.005L634.283 468.58C634.177 468.882 633.956 469.13 633.668 469.269C633.38 469.409 633.048 469.428 632.745 469.323Z" fill="#CCCCCC"/>
<path d="M680.277 450.356L653.411 441.001C653.261 440.949 653.123 440.868 653.004 440.763C652.885 440.658 652.788 440.53 652.719 440.387C652.649 440.244 652.609 440.089 652.6 439.93C652.59 439.772 652.613 439.613 652.665 439.463C652.717 439.313 652.798 439.175 652.904 439.056C653.01 438.937 653.138 438.841 653.281 438.772C653.424 438.703 653.58 438.663 653.738 438.654C653.897 438.645 654.056 438.668 654.206 438.721L681.071 448.075C681.221 448.127 681.36 448.208 681.479 448.314C681.597 448.419 681.694 448.547 681.764 448.69C681.833 448.833 681.873 448.988 681.883 449.146C681.892 449.305 681.87 449.464 681.818 449.614C681.765 449.764 681.684 449.902 681.578 450.021C681.472 450.139 681.344 450.236 681.201 450.305C681.058 450.374 680.903 450.414 680.744 450.422C680.585 450.431 680.427 450.409 680.277 450.356Z" fill="#CCCCCC"/>
<path d="M675.246 464.8L648.381 455.446C648.078 455.34 647.83 455.119 647.691 454.831C647.551 454.542 647.532 454.21 647.637 453.908C647.743 453.606 647.964 453.357 648.252 453.218C648.541 453.079 648.873 453.06 649.175 453.165L676.041 462.52C676.191 462.572 676.329 462.653 676.448 462.758C676.567 462.863 676.664 462.991 676.733 463.134C676.802 463.277 676.843 463.432 676.852 463.591C676.861 463.749 676.839 463.908 676.787 464.058C676.734 464.208 676.653 464.346 676.547 464.465C676.442 464.583 676.314 464.68 676.171 464.749C676.027 464.817 675.872 464.858 675.714 464.866C675.555 464.875 675.396 464.853 675.246 464.8Z" fill="#CCCCCC"/>
<path d="M670.215 479.244L643.35 469.889C643.047 469.784 642.799 469.562 642.659 469.274C642.52 468.986 642.501 468.654 642.606 468.351C642.712 468.049 642.933 467.801 643.221 467.661C643.51 467.522 643.841 467.503 644.144 467.608L671.01 476.963C671.312 477.068 671.56 477.289 671.7 477.578C671.839 477.866 671.858 478.198 671.753 478.5C671.648 478.803 671.426 479.051 671.138 479.191C670.85 479.33 670.518 479.349 670.215 479.244Z" fill="#CCCCCC"/>
<path d="M741.71 487.071C741.905 486.602 742.09 486.125 742.259 485.638C744.467 479.299 744.066 472.342 741.144 466.298C738.222 460.254 733.019 455.618 726.678 453.41L717.848 478.762L741.71 487.071Z" fill="#396AFF"/>
<path d="M715.277 480.303L724.107 454.951C719.44 453.326 714.4 453.102 709.608 454.307C704.815 455.512 700.48 458.092 697.137 461.731C693.794 465.37 691.589 469.907 690.794 474.783C690 479.66 690.65 484.662 692.664 489.174C694.679 493.685 697.97 497.509 702.132 500.173C706.294 502.836 711.145 504.224 716.086 504.164C721.027 504.104 725.843 502.6 729.939 499.837C734.036 497.073 737.234 493.171 739.139 488.612L715.277 480.303Z" fill="#3F3D56"/>
<path d="M746.891 443.936C746.791 442.71 746.961 441.476 747.39 440.323C747.818 439.169 748.495 438.124 749.371 437.26C750.247 436.395 751.302 435.734 752.462 435.322C753.622 434.91 754.858 434.757 756.083 434.874L768.534 407.676L776.773 420.858L763.686 444.664C763.353 446.709 762.281 448.561 760.673 449.868C759.066 451.176 757.035 451.849 754.965 451.759C752.895 451.669 750.929 450.823 749.441 449.381C747.953 447.94 747.046 446.002 746.891 443.936Z" fill="#FFB8B8"/>
<path d="M768.447 434.358C767.68 434.359 766.931 434.125 766.3 433.689L760.421 429.619C759.785 429.177 759.301 428.551 759.033 427.824C758.765 427.098 758.727 426.307 758.924 425.558L765.835 399.458L757.481 350.999C757.471 349.404 757.776 347.823 758.378 346.346C758.98 344.869 759.867 343.526 760.989 342.392C762.11 341.258 763.444 340.357 764.915 339.739C766.385 339.121 767.963 338.799 769.558 338.791C771.153 338.783 772.734 339.09 774.21 339.694C775.686 340.297 777.029 341.186 778.162 342.309C779.295 343.432 780.195 344.767 780.811 346.238C781.427 347.709 781.747 349.287 781.753 350.881L788.598 381.119C790.677 390.296 789.352 399.915 784.868 408.188L771.757 432.386C771.505 432.851 771.158 433.258 770.738 433.58C770.318 433.902 769.835 434.132 769.32 434.255C769.034 434.324 768.741 434.359 768.447 434.358Z" fill="#3F3D56"/>
<path d="M832.164 584H673.099C672.877 584 672.664 583.912 672.507 583.755C672.35 583.598 672.262 583.385 672.262 583.163C672.262 582.941 672.35 582.728 672.507 582.571C672.664 582.414 672.877 582.326 673.099 582.326H832.164C832.386 582.326 832.599 582.414 832.756 582.571C832.913 582.728 833.001 582.941 833.001 583.163C833.001 583.385 832.913 583.598 832.756 583.755C832.599 583.912 832.386 584 832.164 584Z" fill="#CCCCCC"/>
<path d="M410.674 573.585L420.937 573.584L425.82 534.002H410.672L410.674 573.585Z" fill="#A0616A"/>
<path d="M408.055 570.235L428.268 570.234C429.959 570.234 431.635 570.567 433.198 571.215C434.761 571.862 436.181 572.811 437.377 574.006C438.573 575.202 439.522 576.622 440.169 578.185C440.817 579.747 441.15 581.422 441.15 583.114V583.532L408.055 583.533L408.055 570.235Z" fill="#2F2E41"/>
<path d="M369.65 573.585L379.914 573.584L384.796 534.002H369.648L369.65 573.585Z" fill="#A0616A"/>
<path d="M367.035 570.235L387.248 570.234C388.94 570.234 390.615 570.567 392.178 571.215C393.741 571.862 395.161 572.811 396.357 574.006C397.554 575.202 398.502 576.622 399.15 578.185C399.797 579.747 400.13 581.422 400.13 583.114V583.532L367.036 583.533L367.035 570.235Z" fill="#2F2E41"/>
<path d="M412.722 299.548C424.078 299.548 433.284 290.343 433.284 278.989C433.284 267.634 424.078 258.43 412.722 258.43C401.366 258.43 392.16 267.634 392.16 278.989C392.16 290.343 401.366 299.548 412.722 299.548Z" fill="#A0616A"/>
<path d="M426.55 565.042H407.504C407.005 565.042 406.511 564.943 406.051 564.75C405.591 564.558 405.174 564.277 404.824 563.922C404.473 563.567 404.197 563.147 404.01 562.684C403.824 562.222 403.731 561.728 403.737 561.229L404.843 470.801C404.847 470.479 404.728 470.169 404.51 469.933C404.292 469.697 403.992 469.553 403.672 469.532C403.351 469.51 403.034 469.613 402.787 469.818C402.54 470.022 402.38 470.314 402.341 470.633L391.256 561.73C391.144 562.643 390.702 563.484 390.013 564.094C389.325 564.704 388.437 565.041 387.516 565.042H368.287C367.767 565.042 367.254 564.934 366.778 564.726C366.302 564.518 365.874 564.214 365.521 563.833C365.168 563.451 364.898 563.001 364.728 562.511C364.558 562.02 364.49 561.499 364.531 560.981L377.229 398.529L377.574 398.491L438.378 391.926L430.313 561.454C430.268 562.421 429.852 563.334 429.151 564.002C428.45 564.67 427.519 565.043 426.55 565.042Z" fill="#2F2E41"/>
<path d="M377.97 408.503C376.994 408.501 376.056 408.119 375.355 407.438C374.655 406.758 374.247 405.831 374.217 404.855C373.885 394.583 373.316 359.041 379.928 332.947C381.732 325.819 385.783 319.461 391.481 314.812C397.179 310.163 404.221 307.471 411.567 307.133C418.798 306.739 425.97 308.63 432.065 312.54C438.159 316.45 442.868 322.18 445.522 328.916C456.636 357.128 467.137 391.902 454.046 397.356C436.888 404.504 391.656 407.69 378.202 408.496C378.124 408.501 378.047 408.503 377.97 408.503Z" fill="#3F3D56"/>
<path d="M456.558 258.211C456.881 258.543 457.23 258.848 457.602 259.126L455.443 300.582L446.465 305.178L451.631 319.632L468.316 313.04C469.664 312.508 470.802 311.552 471.561 310.318C472.32 309.083 472.657 307.635 472.523 306.193L468.152 259.167C469.583 258.1 470.654 256.623 471.224 254.932C471.795 253.241 471.836 251.417 471.344 249.702C470.852 247.987 469.85 246.462 468.47 245.331C467.09 244.199 465.398 243.514 463.62 243.368C461.841 243.221 460.06 243.619 458.513 244.509C456.967 245.399 455.728 246.739 454.961 248.35C454.195 249.962 453.937 251.768 454.222 253.529C454.507 255.291 455.322 256.924 456.558 258.211Z" fill="#A0616A"/>
<path d="M455.611 302.124L461.927 320.069C462.107 320.58 462.175 321.123 462.125 321.662C462.076 322.201 461.911 322.724 461.642 323.193C461.373 323.663 461.005 324.069 460.565 324.384C460.125 324.699 459.622 324.915 459.09 325.018L440.466 328.624C437.848 329.528 434.978 329.358 432.486 328.15C429.993 326.942 428.081 324.795 427.169 322.18C426.257 319.565 426.42 316.695 427.621 314.199C428.823 311.704 430.965 309.786 433.578 308.868L450.3 300.042C450.779 299.79 451.307 299.644 451.847 299.613C452.388 299.583 452.928 299.67 453.432 299.867C453.936 300.065 454.392 300.369 454.768 300.758C455.144 301.147 455.432 301.613 455.611 302.124Z" fill="#3F3D56"/>
<path d="M367.49 258.211C367.167 258.543 366.818 258.848 366.447 259.126L368.605 300.582L377.583 305.178L372.417 319.632L355.732 313.04C354.384 312.508 353.246 311.552 352.487 310.318C351.728 309.083 351.391 307.635 351.525 306.193L355.896 259.167C354.466 258.1 353.394 256.623 352.824 254.932C352.254 253.241 352.212 251.417 352.704 249.702C353.196 247.987 354.198 246.462 355.578 245.331C356.958 244.199 358.65 243.514 360.428 243.368C362.207 243.221 363.988 243.619 365.535 244.509C367.081 245.399 368.321 246.739 369.087 248.35C369.854 249.962 370.111 251.768 369.826 253.529C369.541 255.291 368.726 256.924 367.49 258.211Z" fill="#A0616A"/>
<path d="M370.615 299.867C371.119 299.67 371.66 299.583 372.2 299.613C372.741 299.644 373.268 299.79 373.747 300.043L390.469 308.868C393.082 309.787 395.224 311.704 396.426 314.199C397.627 316.695 397.79 319.565 396.878 322.18C395.966 324.796 394.054 326.943 391.562 328.151C389.069 329.359 386.199 329.529 383.581 328.624L364.957 325.018C364.426 324.915 363.923 324.699 363.482 324.384C363.042 324.069 362.675 323.663 362.405 323.194C362.136 322.724 361.971 322.202 361.922 321.663C361.873 321.124 361.94 320.58 362.12 320.07L368.436 302.124C368.615 301.613 368.903 301.147 369.279 300.758C369.655 300.368 370.111 300.065 370.615 299.867Z" fill="#3F3D56"/>
<path d="M420.707 282.493C420.599 279.87 421.257 277.273 422.601 275.018C423.946 272.764 425.917 270.949 428.276 269.797C434.526 266.57 438.453 259.689 436.732 253.405C434.53 245.362 423.581 240.146 414.71 242.913C412.309 243.765 409.993 244.841 407.794 246.127L401.998 249.233C399.522 250.472 397.135 251.881 394.853 253.45C391.436 255.968 388.758 259.357 387.098 263.263C385.438 267.17 384.858 271.45 385.418 275.657C386.56 283.834 391.915 291.333 399.246 296.467C402.05 298.562 405.288 300.001 408.722 300.678C412.236 301.258 416.149 300.599 418.718 298.414C422.733 295 422.318 289.281 421.02 284.506C420.848 283.847 420.743 283.173 420.707 282.493Z" fill="#2F2E41"/>
<path d="M490.59 584H331.525C331.303 584 331.09 583.912 330.933 583.755C330.776 583.598 330.688 583.385 330.688 583.163C330.688 582.941 330.776 582.728 330.933 582.571C331.09 582.414 331.303 582.326 331.525 582.326H490.59C490.812 582.326 491.025 582.414 491.182 582.571C491.339 582.728 491.427 582.941 491.427 583.163C491.427 583.385 491.339 583.598 491.182 583.755C491.025 583.912 490.812 584 490.59 584Z" fill="#CCCCCC"/>
<path d="M230.986 431.297L99.7342 485.134C97.4801 486.056 94.9524 486.046 92.7056 485.107C90.4589 484.167 88.6766 482.375 87.7497 480.123L47.5716 382.202C46.8963 380.551 46.9036 378.699 47.5919 377.053C48.2802 375.408 49.5933 374.102 51.2431 373.423L186.932 317.766C188.612 317.079 190.496 317.086 192.17 317.786C193.845 318.487 195.173 319.822 195.864 321.5L235.998 419.314C236.919 421.568 236.909 424.096 235.97 426.342C235.03 428.588 233.238 430.37 230.986 431.297Z" fill="#E6E6E6"/>
<path d="M104.489 473.258L219.26 426.181C221.445 425.284 223.185 423.557 224.096 421.378C225.008 419.199 225.016 416.747 224.12 414.561L191.676 335.49C191.232 334.408 190.579 333.424 189.755 332.595C188.931 331.765 187.951 331.106 186.872 330.654C185.793 330.203 184.635 329.969 183.466 329.965C182.296 329.961 181.137 330.187 180.055 330.631L65.2842 377.708C64.2021 378.152 63.2179 378.805 62.388 379.629C61.5581 380.453 60.8987 381.433 60.4474 382.512C59.9961 383.591 59.7618 384.748 59.7579 385.917C59.7539 387.087 59.9804 388.246 60.4243 389.328L92.8679 468.399C93.3119 469.481 93.9646 470.465 94.7889 471.295C95.6132 472.124 96.5929 472.784 97.672 473.235C98.7512 473.686 99.9086 473.92 101.078 473.924C102.248 473.928 103.407 473.702 104.489 473.258Z" fill="white"/>
<path d="M191.043 357.054L189.355 357.746L189.471 358.027L191.158 357.335L191.043 357.054Z" fill="#E6E6E6"/>
<path d="M186.062 359.426L182.653 360.824L182.538 360.543L185.947 359.145L186.062 359.426ZM179.245 362.222L175.836 363.62L175.72 363.339L179.129 361.941L179.245 362.222ZM172.427 365.019L169.018 366.417L168.903 366.136L172.312 364.738L172.427 365.019ZM165.609 367.815L162.2 369.213L162.085 368.932L165.494 367.534L165.609 367.815ZM158.792 370.612L155.383 372.01L155.267 371.729L158.676 370.33L158.792 370.612ZM151.974 373.408L148.565 374.806L148.45 374.525L151.859 373.127L151.974 373.408ZM145.156 376.205L141.748 377.603L141.632 377.322L145.041 375.924L145.156 376.205ZM138.339 379.001L134.93 380.399L134.815 380.118L138.223 378.72L138.339 379.001ZM131.521 381.798L128.112 383.196L127.997 382.915L131.406 381.516L131.521 381.798ZM124.703 384.594L121.295 385.992L121.179 385.711L124.588 384.313L124.703 384.594ZM117.886 387.391L114.477 388.789L114.362 388.508L117.77 387.109L117.886 387.391ZM111.068 390.187L107.659 391.585L107.544 391.304L110.953 389.906L111.068 390.187ZM104.251 392.984L100.842 394.382L100.726 394.101L104.135 392.702L104.251 392.984ZM97.4329 395.78L94.0241 397.178L93.9087 396.897L97.3176 395.499L97.4329 395.78ZM90.6153 398.577L87.2065 399.975L87.0911 399.694L90.4999 398.295L90.6153 398.577ZM83.7977 401.373L80.3888 402.771L80.2734 402.49L83.6823 401.092L83.7977 401.373Z" fill="#E6E6E6"/>
<path d="M76.8631 403.888L75.1758 404.58L75.2912 404.861L76.9785 404.169L76.8631 403.888Z" fill="#E6E6E6"/>
<path d="M146.371 405.929L144.684 406.621L144.799 406.902L146.486 406.21L146.371 405.929Z" fill="#E6E6E6"/>
<path d="M141.441 408.279L138.083 409.657L137.968 409.375L141.326 407.998L141.441 408.279ZM134.725 411.034L131.367 412.412L131.251 412.13L134.61 410.753L134.725 411.034ZM128.009 413.789L124.65 415.167L124.535 414.885L127.893 413.508L128.009 413.789ZM121.292 416.544L117.934 417.922L117.819 417.64L121.177 416.263L121.292 416.544ZM114.576 419.299L111.218 420.677L111.102 420.395L114.46 419.018L114.576 419.299ZM107.859 422.054L104.501 423.432L104.386 423.15L107.744 421.773L107.859 422.054ZM101.143 424.809L97.7849 426.186L97.6695 425.905L101.028 424.528L101.143 424.809ZM94.4267 427.564L91.0685 428.941L90.9531 428.66L94.3113 427.283L94.4267 427.564Z" fill="#E6E6E6"/>
<path d="M87.5936 430.038L85.9062 430.73L86.0216 431.012L87.709 430.32L87.5936 430.038Z" fill="#E6E6E6"/>
<path d="M118.543 431.798L116.855 432.49L116.971 432.771L118.658 432.079L118.543 431.798Z" fill="#E6E6E6"/>
<path d="M113.516 434.189L110.061 435.607L109.945 435.325L113.4 433.908L113.516 434.189ZM106.606 437.024L103.151 438.441L103.035 438.16L106.49 436.743L106.606 437.024ZM99.6954 439.858L96.2404 441.275L96.125 440.994L99.5801 439.577L99.6954 439.858Z" fill="#E6E6E6"/>
<path d="M92.6717 442.411L90.9844 443.104L91.0998 443.385L92.7871 442.693L92.6717 442.411Z" fill="#E6E6E6"/>
<path d="M127.207 452.911L125.52 453.604L125.635 453.885L127.322 453.193L127.207 452.911Z" fill="#E6E6E6"/>
<path d="M122.18 455.303L118.725 456.72L118.609 456.439L122.064 455.021L122.18 455.303ZM115.27 458.137L111.815 459.554L111.699 459.273L115.154 457.856L115.27 458.137ZM108.359 460.972L104.904 462.389L104.789 462.108L108.244 460.69L108.359 460.972Z" fill="#E6E6E6"/>
<path d="M101.332 463.525L99.6445 464.217L99.7599 464.498L101.447 463.806L101.332 463.525Z" fill="#E6E6E6"/>
<path d="M109.363 460.81L206.623 420.916C208.977 419.947 210.851 418.084 211.833 415.736C212.815 413.388 212.825 410.747 211.862 408.391L192.211 360.498L192.021 360.582L168.153 417.642L150.451 410.243C150.125 410.105 149.771 410.045 149.417 410.067C149.063 410.089 148.719 410.193 148.412 410.37C147.951 410.647 147.595 411.069 147.398 411.569L134.889 441.47L121.946 436.061C121.667 435.944 121.367 435.883 121.065 435.882C120.762 435.881 120.462 435.94 120.182 436.055C119.902 436.17 119.647 436.339 119.432 436.552C119.217 436.765 119.047 437.019 118.93 437.298C118.847 437.501 110.867 457.078 109.363 460.81Z" fill="#396AFF"/>
<path d="M109.066 461.261L108.785 461.144L118.793 437.215C119.058 436.584 119.563 436.083 120.197 435.823C120.831 435.563 121.542 435.565 122.174 435.829L134.861 441.134L147.298 411.397C147.563 410.766 148.068 410.265 148.702 410.005C149.336 409.745 150.047 409.747 150.679 410.011L168.125 417.305L192.115 359.947L192.396 360.065L168.288 417.703L150.562 410.291C150.285 410.175 149.989 410.116 149.69 410.114C149.39 410.113 149.094 410.171 148.817 410.285C148.54 410.399 148.288 410.566 148.075 410.777C147.863 410.988 147.694 411.238 147.579 411.515L135.024 441.531L122.057 436.109C121.499 435.877 120.871 435.875 120.312 436.104C119.753 436.334 119.308 436.775 119.074 437.333L109.066 461.261Z" fill="#3F3D56"/>
<path d="M118.6 434.066C119.776 434.066 120.728 433.113 120.728 431.938C120.728 430.763 119.776 429.811 118.6 429.811C117.425 429.811 116.473 430.763 116.473 431.938C116.473 433.113 117.425 434.066 118.6 434.066Z" fill="#3F3D56"/>
<path d="M146.429 408.196C147.604 408.196 148.556 407.244 148.556 406.069C148.556 404.894 147.604 403.941 146.429 403.941C145.253 403.941 144.301 404.894 144.301 406.069C144.301 407.244 145.253 408.196 146.429 408.196Z" fill="#3F3D56"/>
<path d="M189.757 359.247C190.932 359.247 191.885 358.295 191.885 357.12C191.885 355.945 190.932 354.992 189.757 354.992C188.582 354.992 187.629 355.945 187.629 357.12C187.629 358.295 188.582 359.247 189.757 359.247Z" fill="#3F3D56"/>
<path d="M70.6601 429.525C71.7662 428.974 72.7382 428.188 73.5076 427.222C74.277 426.255 74.825 425.132 75.1132 423.93C75.4013 422.729 75.4225 421.479 75.1753 420.269C74.928 419.059 74.4184 417.917 73.6822 416.925L80.0018 355.146H66.3445L61.3222 415.47C59.7372 416.817 58.7015 418.699 58.4113 420.758C58.121 422.818 58.5965 424.912 59.7475 426.644C60.8985 428.377 62.6451 429.627 64.6564 430.158C66.6676 430.689 68.8038 430.463 70.6601 429.525Z" fill="#FFB8B8"/>
<path d="M83.1973 321.053C93.8687 321.053 102.52 312.403 102.52 301.733C102.52 291.064 93.8687 282.414 83.1973 282.414C72.5259 282.414 63.875 291.064 63.875 301.733C63.875 312.403 72.5259 321.053 83.1973 321.053Z" fill="#FFB8B8"/>
<path d="M86.838 391.124C86.0646 391.124 85.3126 390.87 84.6974 390.401C84.0822 389.932 83.6378 389.275 83.4323 388.529C81.8843 382.906 77.8566 373.397 71.4616 360.267C70.0186 357.299 69.2195 354.06 69.1168 350.761C69.0141 347.463 69.6101 344.18 70.8656 341.128C72.1211 338.076 74.0078 335.324 76.402 333.052C78.7961 330.78 81.6436 329.04 84.7576 327.946C87.7086 326.905 90.8386 326.465 93.9624 326.654C97.0862 326.843 100.14 327.656 102.944 329.046C105.748 330.436 108.245 332.374 110.287 334.745C112.328 337.117 113.873 339.874 114.831 342.853C119.788 358.391 119.548 375.035 119.215 381.469C119.174 382.244 118.88 382.984 118.378 383.576C117.875 384.168 117.193 384.578 116.435 384.745L87.5973 391.042C87.3479 391.097 87.0934 391.124 86.838 391.124Z" fill="#FF6584"/>
<path d="M114.763 574.577H124.408L128.996 537.381L114.762 537.382L114.763 574.577Z" fill="#FFB8B8"/>
<path d="M143.008 583.531L112.695 583.533L112.695 571.823L131.296 571.822C132.834 571.822 134.357 572.125 135.778 572.713C137.198 573.302 138.49 574.164 139.577 575.251C140.665 576.339 141.527 577.629 142.116 579.05C142.705 580.471 143.008 581.993 143.008 583.531Z" fill="#2F2E41"/>
<path d="M18.3203 562.081L26.7725 566.727L48.7169 536.344L36.2436 529.486L18.3203 562.081Z" fill="#FFB8B8"/>
<path d="M38.7578 583.533L12.1951 568.932L17.8374 558.671L34.1372 567.631C36.8591 569.127 38.875 571.643 39.7416 574.625C40.6081 577.607 40.2542 580.812 38.7578 583.533Z" fill="#2F2E41"/>
<path d="M114.312 553.932C113.453 553.931 112.623 553.618 111.978 553.05C111.332 552.483 110.915 551.7 110.805 550.848L98.7429 457.914C98.6896 457.503 98.5077 457.119 98.2233 456.817C97.9388 456.516 97.5663 456.312 97.159 456.235C96.7517 456.157 96.3304 456.211 95.9553 456.387C95.5801 456.564 95.2703 456.854 95.0701 457.217L44.8007 548.406C44.3859 549.151 43.7177 549.722 42.9175 550.016C42.1173 550.309 41.2382 550.306 40.4402 550.006L29.483 545.832C29.0422 545.665 28.6395 545.41 28.2984 545.085C27.9573 544.759 27.6848 544.369 27.4967 543.936C27.3087 543.504 27.2089 543.038 27.2034 542.567C27.1978 542.095 27.2866 541.627 27.4644 541.19L62.2873 455.659C62.3754 455.442 62.4352 455.214 62.4651 454.982C67.1817 418.481 79.1822 399.92 82.7478 395.101C83.0082 394.746 83.1796 394.335 83.2475 393.9C83.3154 393.466 83.2778 393.022 83.1379 392.605L82.6477 391.135C82.4519 390.551 82.4118 389.927 82.5313 389.323C82.6508 388.719 82.9257 388.157 83.329 387.692C96.1769 373.06 118.57 381.044 118.795 381.126L118.907 381.168L118.978 381.264C144.087 415.695 134.803 527.525 132.687 549.593C132.608 550.423 132.239 551.197 131.643 551.78C131.048 552.363 130.266 552.717 129.435 552.779L114.587 553.922C114.495 553.929 114.403 553.932 114.312 553.932Z" fill="#2F2E41"/>
<path d="M158.318 324.174C158.221 324.599 158.158 325.03 158.129 325.464L124.335 344.957L116.12 340.229L107.363 351.692L121.092 361.475C122.201 362.265 123.536 362.675 124.898 362.641C126.259 362.608 127.573 362.134 128.643 361.291L163.491 333.803C165.064 334.385 166.776 334.475 168.401 334.06C170.026 333.645 171.486 332.745 172.587 331.48C173.688 330.216 174.378 328.646 174.564 326.979C174.751 325.313 174.426 323.629 173.633 322.152C172.839 320.675 171.614 319.475 170.122 318.71C168.629 317.946 166.939 317.654 165.277 317.874C163.614 318.093 162.058 318.814 160.815 319.939C159.572 321.065 158.701 322.542 158.318 324.174Z" fill="#FFB8B8"/>
<path d="M123.203 345.88L112.281 360.034C111.97 360.437 111.576 360.768 111.126 361.005C110.675 361.241 110.179 361.378 109.671 361.406C109.163 361.434 108.655 361.352 108.182 361.166C107.708 360.98 107.281 360.694 106.928 360.327L94.5629 347.489C92.5112 345.888 91.1784 343.538 90.8567 340.956C90.535 338.373 91.2506 335.768 92.8466 333.713C94.4427 331.657 96.7889 330.318 99.371 329.989C101.953 329.66 104.56 330.369 106.62 331.959L122.129 340.629C122.573 340.877 122.958 341.219 123.258 341.629C123.558 342.04 123.766 342.51 123.868 343.009C123.97 343.507 123.964 344.022 123.849 344.517C123.734 345.013 123.514 345.478 123.203 345.88Z" fill="#FF6584"/>
<path d="M80.8697 370.471L63.2744 367.295C62.7738 367.204 62.2985 367.007 61.8809 366.716C61.4634 366.426 61.1134 366.049 60.8548 365.611C60.5962 365.173 60.435 364.684 60.3823 364.178C60.3296 363.672 60.3866 363.161 60.5493 362.679L66.2534 345.793C66.7303 343.234 68.2025 340.969 70.3472 339.495C72.4919 338.02 75.134 337.455 77.6942 337.925C80.2544 338.395 82.5237 339.861 84.0045 342.002C85.4854 344.142 86.0568 346.782 85.5937 349.343L85.0371 367.1C85.021 367.608 84.8956 368.107 84.6692 368.563C84.4429 369.018 84.121 369.42 83.7255 369.74C83.33 370.06 82.8702 370.291 82.3774 370.417C81.8846 370.543 81.3704 370.562 80.8697 370.471Z" fill="#FF6584"/>
<path d="M86.2562 297.289C91.2224 300.687 97.7432 304.181 102.815 300.562C104.402 299.354 105.555 297.664 106.101 295.746C106.647 293.829 106.557 291.786 105.845 289.923C103.416 282.979 96.743 279.921 90.362 277.578C82.0666 274.531 73.0342 272.108 64.4706 274.29C55.907 276.471 48.3387 284.761 49.8846 293.461C51.1278 300.457 57.7281 306.278 56.7911 313.322C55.8481 320.411 47.8747 324.142 40.8355 325.409C33.7963 326.676 25.9193 327.083 20.8605 332.139C14.4071 338.588 16.0186 350.115 22.091 356.924C28.1634 363.732 37.327 366.819 46.2065 368.917C57.9714 371.697 70.6959 373.158 81.8695 368.544C93.0432 363.931 101.738 351.511 98.5015 339.866C97.1343 334.946 93.9135 330.789 90.8008 326.742C87.6881 322.694 84.5362 318.462 83.3488 313.497C82.3594 309.359 83.0917 304.554 85.8362 301.45C86.3354 300.907 86.6496 300.219 86.7336 299.486C86.8176 298.753 86.6672 298.013 86.3038 297.371L86.2562 297.289Z" fill="#2F2E41"/>
<path d="M159.903 584H0.837186C0.61515 584 0.402208 583.912 0.245205 583.755C0.0882026 583.598 0 583.385 0 583.163C0 582.941 0.0882026 582.728 0.245205 582.571C0.402208 582.414 0.61515 582.326 0.837186 582.326H159.903C160.125 582.326 160.337 582.414 160.494 582.571C160.651 582.728 160.74 582.941 160.74 583.163C160.74 583.385 160.651 583.598 160.494 583.755C160.337 583.912 160.125 584 159.903 584Z" fill="#CCCCCC"/>
</g>
<defs>
<clipPath id="clip0_266_40470">
<rect width="833" height="584" fill="white"/>
</clipPath>
</defs>
</svg>
