<svg width="20" height="23" viewBox="0 0 20 23" fill="none" xmlns="http://www.w3.org/2000/svg">
<path d="M0.996094 5.49708H2.99659M2.99659 5.49708H19.0005M2.99659 5.49708V19.5005C2.99659 20.0311 3.20735 20.5399 3.58252 20.9151C3.95768 21.2903 4.46652 21.501 4.99708 21.501H14.9995C15.5301 21.501 16.0389 21.2903 16.4141 20.9151C16.7893 20.5399 17 20.0311 17 19.5005V5.49708H2.99659ZM5.99733 5.49708V3.49659C5.99733 2.96602 6.20809 2.45719 6.58326 2.08202C6.95843 1.70686 7.46726 1.49609 7.99782 1.49609H11.9988C12.5294 1.49609 13.0382 1.70686 13.4134 2.08202C13.7885 2.45719 13.9993 2.96602 13.9993 3.49659V5.49708M7.99782 10.4983V16.4998M11.9988 10.4983V16.4998" stroke="#C7C7C7" stroke-width="1.5" stroke-linecap="round" stroke-linejoin="round"/>
</svg>
