<svg width="21" height="21" viewBox="0 0 21 21" fill="none" xmlns="http://www.w3.org/2000/svg">
<path d="M10.5013 2.16406C10.9615 2.16406 11.3346 2.53716 11.3346 2.9974V12.6522L14.0787 9.90814C14.4042 9.5827 14.9318 9.5827 15.2572 9.90814C15.5827 10.2336 15.5827 10.7612 15.2572 11.0867L11.0906 15.2533C10.7651 15.5788 10.2375 15.5788 9.91205 15.2533L5.74538 11.0867C5.41994 10.7612 5.41994 10.2336 5.74538 9.90814C6.07082 9.5827 6.59845 9.5827 6.92389 9.90814L9.66797 12.6522V2.9974C9.66797 2.53716 10.0411 2.16406 10.5013 2.16406Z" fill="#C7C7C7"/>
<path d="M3.0013 12.1641C3.46154 12.1641 3.83464 12.5372 3.83464 12.9974V16.3307C3.83464 16.791 4.20773 17.1641 4.66797 17.1641H16.3346C16.7949 17.1641 17.168 16.791 17.168 16.3307V12.9974C17.168 12.5372 17.5411 12.1641 18.0013 12.1641C18.4615 12.1641 18.8346 12.5372 18.8346 12.9974V16.3307C18.8346 17.7114 17.7153 18.8307 16.3346 18.8307H4.66797C3.28726 18.8307 2.16797 17.7114 2.16797 16.3307V12.9974C2.16797 12.5372 2.54106 12.1641 3.0013 12.1641Z" fill="#C7C7C7"/>
</svg>
