<svg width="24" height="24" viewBox="0 0 24 24" fill="none" xmlns="http://www.w3.org/2000/svg">
<path fill-rule="evenodd" clip-rule="evenodd" d="M6.59961 4.36328C4.94276 4.36328 3.59961 5.70643 3.59961 7.36328V16.636C3.59961 18.2928 4.94275 19.636 6.59961 19.636H17.3996C19.0564 19.636 20.3996 18.2928 20.3996 16.636V7.36328C20.3996 5.70643 19.0564 4.36328 17.3996 4.36328H6.59961ZM12.6253 5.89082C11.5207 5.89082 10.6253 6.78625 10.6253 7.89082V16.109C10.6253 17.2136 11.5207 18.109 12.6253 18.109H16.7198C17.8244 18.109 18.7198 17.2136 18.7198 16.109V7.89082C18.7198 6.78625 17.8244 5.89082 16.7198 5.89082H12.6253Z" fill="#838383"/>
</svg>
