<svg width="90" height="91" viewBox="0 0 90 91" fill="none" xmlns="http://www.w3.org/2000/svg">
<path d="M60.0044 60.4986L45.0044 45.4986M45.0044 45.4986L30.0044 60.4986M45.0044 45.4986V79.2486M76.4669 69.4611C80.1244 67.4671 83.0137 64.3119 84.6789 60.4934C86.3441 56.675 86.6902 52.4107 85.6626 48.3737C84.6351 44.3367 82.2925 40.7568 79.0044 38.199C75.7163 35.6413 71.6701 34.2513 67.5044 34.2486H62.7794C61.6443 29.8583 59.5287 25.7824 56.5917 22.3273C53.6546 18.8723 49.9725 16.128 45.8222 14.3009C41.6719 12.4737 37.1614 11.6112 32.6298 11.7782C28.0982 11.9451 23.6634 13.1372 19.6588 15.2648C15.6542 17.3925 12.184 20.4002 9.5092 24.062C6.83436 27.7238 5.02446 31.9444 4.21554 36.4063C3.40663 40.8683 3.61976 45.4556 4.83892 49.8233C6.05807 54.1911 8.25153 58.2256 11.2544 61.6236" stroke="#396AFF" stroke-width="7.18536" stroke-linecap="round" stroke-linejoin="round"/>
</svg>
